<svg width="14" height="14" viewBox="0 0 14 14" fill="none" xmlns="http://www.w3.org/2000/svg">
<path d="M11.7518 5.58418L12.308 5.02797C12.7504 4.5855 12.999 3.98539 12.999 3.35965C12.999 2.7339 12.7504 2.13379 12.308 1.69132C11.8656 1.24885 11.2655 1.00028 10.6398 1.00028C10.014 1.00028 9.41396 1.24885 8.97152 1.69132L8.41534 2.24753L3.30232 7.3596C2.95613 7.70641 2.78274 7.87981 2.63394 8.07061C2.45821 8.29578 2.30753 8.53942 2.18456 8.79722C2.08076 9.01563 2.00337 9.24843 1.84857 9.71283L1.19219 11.6815M11.7518 5.58418C11.7518 5.58418 10.5705 5.51458 9.5277 4.47176C8.48493 3.42955 8.41594 2.24753 8.41594 2.24753M11.7518 5.58418L6.6394 10.6962C6.29321 11.0425 6.11982 11.2159 5.92902 11.3647C5.70387 11.5404 5.46024 11.6911 5.20245 11.8141C4.98406 11.9179 4.75187 11.9953 4.28688 12.1501L2.31835 12.8065M2.31835 12.8065L1.83717 12.9673C1.72501 13.0049 1.60458 13.0105 1.48942 12.9834C1.37426 12.9563 1.26893 12.8977 1.18528 12.814C1.10163 12.7303 1.04296 12.625 1.01589 12.5098C0.98881 12.3947 0.99439 12.2742 1.032 12.1621L1.19279 11.6809L2.31835 12.8065Z" stroke="#808080" stroke-width="1.5"/>
</svg>
