<svg width="10" height="10" viewBox="0 0 10 10" fill="none" xmlns="http://www.w3.org/2000/svg">
<path fill-rule="evenodd" clip-rule="evenodd" d="M3.28163 6.36854e-05C3.29884 0.000101184 3.31608 0.000132378 3.33333 0.000132378C3.35061 0.000132378 3.36783 0.000101184 3.38506 6.36854e-05C3.58989 -0.000317555 3.79122 -0.000692721 3.97056 0.0533684C4.44989 0.197846 4.82422 0.619004 4.95267 1.1582C5.00072 1.35997 5.00039 1.58647 5.00006 1.81691C5.00006 1.83628 5 1.85567 5 1.87509H9.44444C9.75128 1.87509 10 2.1549 10 2.50007C10 2.84524 9.75128 3.12505 9.44444 3.12505H5C5 3.14447 5.00006 3.16386 5.00006 3.18323C5.00039 3.41367 5.00072 3.64017 4.95267 3.84197C4.82422 4.38114 4.44989 4.80232 3.97056 4.94675C3.79122 5.00081 3.58989 5.00044 3.38506 5.00006C3.36783 5.00006 3.35061 5 3.33333 5C3.31608 5 3.29884 5.00006 3.28162 5.00006C3.07678 5.00044 2.87544 5.00081 2.69608 4.94675C2.21679 4.80232 1.84242 4.38114 1.71399 3.84197C1.66593 3.64017 1.66627 3.41367 1.66661 3.18322C1.66664 3.16386 1.66667 3.14446 1.66667 3.12505H0.555556C0.248733 3.12505 0 2.84524 0 2.50007C0 2.1549 0.248733 1.87509 0.555556 1.87509H1.66667C1.66667 1.85567 1.66664 1.83628 1.66661 1.81691C1.66627 1.58647 1.66593 1.35997 1.71399 1.1582C1.84242 0.619004 2.21679 0.197846 2.69608 0.0533684C2.87544 -0.000692721 3.07678 -0.000317555 3.28163 6.36854e-05ZM3.05478 1.25344C2.99553 1.25648 2.98158 1.26138 2.98366 1.26074C2.8878 1.28964 2.81293 1.37387 2.78724 1.48171C2.78678 1.48391 2.78313 1.50311 2.78075 1.56172C2.77791 1.63174 2.77778 1.72411 2.77778 1.87509V3.12505C2.77778 3.27602 2.77791 3.3684 2.78075 3.43841C2.78345 3.50508 2.7878 3.52076 2.78724 3.51843C2.81293 3.62626 2.8878 3.7105 2.98366 3.73939C2.98158 3.73876 2.99553 3.74365 3.05478 3.74669C3.11702 3.74989 3.19913 3.75003 3.33333 3.75003C3.46756 3.75003 3.54967 3.74989 3.61189 3.74669C3.67111 3.74365 3.68506 3.73876 3.683 3.73939C3.77889 3.7105 3.85372 3.62626 3.87944 3.51843C3.87889 3.52076 3.88322 3.50508 3.88589 3.43841C3.88878 3.3684 3.88889 3.27602 3.88889 3.12505V1.87509C3.88889 1.72411 3.88878 1.63174 3.88589 1.56172C3.88322 1.49506 3.87889 1.47938 3.87944 1.48171M3.05478 1.25344C3.11702 1.25025 3.19913 1.2501 3.33333 1.2501L3.05478 1.25344ZM3.33333 1.2501C3.46756 1.2501 3.54967 1.25025 3.61189 1.25344L3.33333 1.2501ZM3.61189 1.25344C3.664 1.25611 3.68106 1.26022 3.683 1.26074L3.61189 1.25344ZM6.61494 4.99994C6.63217 5 6.64939 5 6.66667 5C6.68394 5 6.70117 5 6.71839 4.99994C6.92322 4.99956 7.12456 4.99919 7.30389 5.05325C7.78322 5.19775 8.15756 5.61886 8.286 6.1581C8.33406 6.35984 8.33372 6.58634 8.33339 6.81677C8.33339 6.83614 8.33333 6.85552 8.33333 6.87495H9.44444C9.75128 6.87495 10 7.15476 10 7.49994C10 7.84512 9.75128 8.12492 9.44444 8.12492H8.33333C8.33333 8.14436 8.33339 8.16373 8.33339 8.18311C8.33372 8.41354 8.33406 8.64004 8.286 8.84184C8.15756 9.38102 7.78322 9.80219 7.30389 9.94663C7.12456 10.0007 6.92322 10.0003 6.71839 9.99994C6.70117 9.99994 6.68394 9.99987 6.66667 9.99987C6.64939 9.99987 6.63217 9.99994 6.61494 9.99994C6.41011 10.0003 6.20878 10.0007 6.02944 9.94663C5.55011 9.80219 5.17578 9.38102 5.04733 8.84184C4.99928 8.64004 4.99961 8.41354 4.99994 8.18311C4.99994 8.16373 5 8.14436 5 8.12492H0.555556C0.248733 8.12492 0 7.84512 0 7.49994C0 7.15476 0.248733 6.87495 0.555556 6.87495H5C5 6.85558 4.99994 6.83614 4.99994 6.81677C4.99961 6.58634 4.99928 6.35984 5.04733 6.1581C5.17578 5.61886 5.55011 5.19775 6.02944 5.05325C6.20878 4.99919 6.41011 4.99956 6.61494 4.99994ZM6.38811 6.25334C6.32889 6.25634 6.31494 6.26122 6.317 6.26059C6.22111 6.28953 6.14628 6.37378 6.12056 6.48159C6.12111 6.47928 6.11678 6.49496 6.11411 6.56159C6.11122 6.63158 6.11111 6.72402 6.11111 6.87495V8.12492C6.11111 8.27592 6.11122 8.36829 6.11411 8.43829C6.11678 8.50498 6.12111 8.52066 6.12056 8.51829C6.14628 8.62616 6.22111 8.71034 6.317 8.73928C6.31494 8.73866 6.32889 8.74353 6.38811 8.74659C6.45033 8.74978 6.53244 8.74991 6.66667 8.74991C6.80089 8.74991 6.883 8.74978 6.94522 8.74659C7.00444 8.74353 7.01839 8.73866 7.01633 8.73928C7.11222 8.71034 7.18706 8.62616 7.21278 8.51829C7.21222 8.52066 7.21656 8.50498 7.21922 8.43829C7.22211 8.36829 7.22222 8.27592 7.22222 8.12492V6.87495C7.22222 6.72402 7.22211 6.63158 7.21922 6.56159C7.21656 6.49496 7.21222 6.47928 7.21278 6.48159C7.18706 6.37378 7.11222 6.28953 7.01633 6.26059C7.01839 6.26122 7.00444 6.25634 6.94522 6.25334C6.883 6.25009 6.80089 6.24997 6.66667 6.24997C6.53244 6.24997 6.45033 6.25009 6.38811 6.25334Z" fill="#808080"/>
</svg>
